<svg xmlns="http://www.w3.org/2000/svg" version="1.1" xmlns:xlink="http://www.w3.org/1999/xlink" xmlns:svgjs="http://svgjs.dev/svgjs" width="1000" height="999" viewBox="0 0 1000 999"><g transform="matrix(1,0,0,1,-0.215743440233382,-0.21552769679306039)"><svg viewBox="0 0 343 343" data-background-color="#8abcd7" preserveAspectRatio="xMidYMid meet" height="999" width="1000" xmlns="http://www.w3.org/2000/svg" xmlns:xlink="http://www.w3.org/1999/xlink"><g id="tight-bounds" transform="matrix(1,0,0,1,0.0740000000000407,0.07400000000001228)"><svg viewBox="0 0 342.85155851775386 342.85155851775386" height="342.85155851775386" width="342.85155851775386"><g><svg></svg></g><g><svg viewBox="0 0 342.85155851775386 342.85155851775386" height="342.85155851775386" width="342.85155851775386"><g><path d="M0 171.426c0-94.676 76.75-171.426 171.426-171.426 94.676 0 171.426 76.75 171.426 171.426 0 94.676-76.75 171.426-171.426 171.426-94.676 0-171.426-76.75-171.426-171.426zM171.426 341.832c94.113 0 170.406-76.293 170.406-170.406 0-94.113-76.293-170.406-170.406-170.406-94.113 0-170.406 76.293-170.406 170.406 0 94.113 76.293 170.406 170.406 170.406z" data-fill-palette-color="tertiary" fill="#ffffff" stroke="transparent"></path><ellipse rx="164.56874808852186" ry="164.56874808852186" cx="171.42577925887693" cy="171.42577925887693" fill="#ffffff" stroke="transparent" stroke-width="0" fill-opacity="1" data-fill-palette-color="tertiary"></ellipse></g><g transform="matrix(1,0,0,1,64.84655864529837,145.6409730238847)"><svg viewBox="0 0 213.1584412271571 51.569612469984484" height="51.569612469984484" width="213.1584412271571"><g><svg viewBox="0 0 287.34005224204816 69.51643601782754" height="51.569612469984484" width="213.1584412271571"><g transform="matrix(1,0,0,1,73.1158188087553,21.481587753408128)"><svg viewBox="0 0 214.22423343329288 26.55326051101129" height="26.55326051101129" width="214.22423343329288"><g id="textblocktransform"><svg viewBox="0 0 214.22423343329288 26.55326051101129" height="26.55326051101129" width="214.22423343329288" id="textblock"><g><rect width="214.22423343329288" height="1.374870751583786" x="0" y="16.8652876580708" fill="#8abcd7" opacity="1" stroke-width="0" stroke="transparent" fill-opacity="1" class="rect-o-0" data-fill-palette-color="quaternary" rx="1%" id="o-0" data-palette-color="#8abcd7"></rect></g><g transform="matrix(1,0,0,1,0.532896103067884,0)"><svg viewBox="0 0 213.1584412271571 15.24567551615273" height="15.24567551615273" width="213.1584412271571"><g transform="matrix(1,0,0,1,0,0)"><svg width="213.1584412271571" viewBox="2.640000104904175 -31.610000610351562 448.3599853515625 32.0712776184082" height="15.24567551615273" data-palette-color="#8abcd7"><path d="M7.13-23.45L7.13-23.45Q7.13-22.24 7.93-21.18 8.74-20.11 10-19.43 11.26-18.74 12.87-18.22 14.48-17.7 16.26-17.13 18.05-16.55 19.77-15.86 21.49-15.17 22.76-14.14L22.76-14.14Q25.52-11.9 25.52-8.05L25.52-8.05Q25.52-6.21 24.66-4.57 23.79-2.93 22.24-1.84L22.24-1.84Q19.08 0.46 13.79 0.46L13.79 0.46Q8.79 0.46 5-2.07L5-2.07Q2.64-3.56 2.64-4.6L2.64-4.6Q2.64-5.52 3.56-6.09L3.56-6.09Q3.79-6.32 4.14-6.32 4.48-6.32 4.89-6.03 5.29-5.75 5.83-5.34 6.38-4.94 7.21-4.45 8.05-3.97 8.97-3.56L8.97-3.56Q11.26-2.64 13.45-2.7 15.63-2.76 16.95-3.05 18.28-3.33 19.31-4.02L19.31-4.02Q21.49-5.52 21.55-7.82L21.55-7.82Q21.55-10.69 18.74-12.24L18.74-12.24Q17.47-12.93 15.89-13.48 14.31-14.02 12.56-14.54 10.8-15.06 9.08-15.8 7.36-16.55 6.03-17.59L6.03-17.59Q3.22-19.83 3.22-23.33L3.22-23.33Q3.22-25.17 4.11-26.78 5-28.39 6.55-29.43L6.55-29.43Q9.54-31.55 14.02-31.61L14.02-31.61Q20.52-31.61 24.48-27.41L24.48-27.41Q24.71-27.07 24.71-26.64 24.71-26.21 24.68-25.92 24.66-25.63 24.37-25.34L24.37-25.34Q23.97-24.83 23.3-24.83 22.64-24.83 21.9-25.69L21.9-25.69Q20-27.07 18.85-27.47L18.85-27.47Q16.55-28.39 14.37-28.39L14.37-28.39Q11.55-28.39 9.54-27.24L9.54-27.24Q7.13-25.86 7.13-23.45ZM35.54-20.2Q35-17.82 35-15.55 35-13.28 35.54-10.86 36.09-8.45 37.41-6.64 38.73-4.83 40.69-3.74 42.64-2.64 45.46-2.64 48.27-2.64 50.28-3.74 52.3-4.83 53.56-6.64 54.83-8.45 55.43-10.86 56.03-13.28 56.03-15.55 56.03-17.82 55.43-20.2 54.83-22.59 53.56-24.4 52.3-26.21 50.28-27.3 48.27-28.39 45.46-28.39 42.64-28.39 40.69-27.3 38.73-26.21 37.41-24.4 36.09-22.59 35.54-20.2ZM30.69-15.63L30.69-15.63Q30.69-18.97 31.66-21.95 32.64-24.94 34.6-27.07L34.6-27.07Q38.5-31.55 45.4-31.61L45.4-31.61Q52.41-31.61 56.38-27.07L56.38-27.07Q58.27-24.94 59.22-21.95 60.17-18.97 60.17-15.63L60.17-15.63Q60.17-12.24 59.22-9.17 58.27-6.09 56.38-4.02L56.38-4.02Q52.41 0.46 45.4 0.46L45.4 0.46Q38.45 0.46 34.6-4.02L34.6-4.02Q32.64-6.21 31.66-9.22 30.69-12.24 30.69-15.63ZM67.06-10.92L67.06-29.48Q67.06-30.34 67.52-30.69L67.52-30.69Q68.27-31.38 69.05-31.38 69.82-31.38 70.43-30.92 71.03-30.46 71.03-29.48L71.03-29.48 71.03-10.92Q71.03-7.01 73.62-4.71L73.62-4.71Q75.91-2.76 79.31-2.76L79.31-2.76Q82.75-2.76 85-4.71L85-4.71Q87.58-6.9 87.58-10.92L87.58-10.92 87.58-29.48Q87.58-30.34 88.1-30.69L88.1-30.69Q88.79-31.38 89.56-31.38 90.34-31.38 90.94-30.92 91.55-30.46 91.55-29.48L91.55-29.48 91.55-10.92Q91.55-5.4 87.87-2.24L87.87-2.24Q84.54 0.52 79.31 0.46L79.31 0.46Q74.13 0.46 70.74-2.24L70.74-2.24Q67.06-5.4 67.06-10.92L67.06-10.92ZM106.37-28.1L97.81-28.1Q96.95-28.1 96.54-28.62 96.14-29.14 96.14-29.74 96.14-30.34 96.54-30.86 96.95-31.38 97.81-31.38L97.81-31.38 118.79-31.38Q119.59-31.38 119.99-30.86 120.39-30.34 120.39-29.74 120.39-29.14 119.96-28.62 119.53-28.1 118.79-28.1L118.79-28.1 110.28-28.1 110.28-1.9Q110.28-0.57 109.13-0.11L109.13-0.11Q108.79 0 108.21 0 107.64 0 107-0.46 106.37-0.92 106.37-1.9L106.37-1.9 106.37-28.1ZM145.56-17.93L145.56-29.48Q145.56-30.8 146.89-31.21L146.89-31.21Q147.23-31.26 147.75-31.32 148.27-31.38 148.9-30.92 149.53-30.46 149.53-29.48L149.53-29.48 149.53-1.9Q149.53-1.03 149.01-0.57L149.01-0.57Q148.32 0 147.55 0 146.77 0 146.17-0.46 145.56-0.92 145.56-1.9L145.56-1.9 145.56-14.66 129.07-14.66 129.07-1.9Q129.07-1.03 128.61-0.57L128.61-0.57Q127.92 0 127.12 0 126.31 0 125.74-0.46 125.16-0.92 125.16-1.9L125.16-1.9 125.16-29.48Q125.16-30.8 126.43-31.21L126.43-31.21Q126.77-31.26 127.29-31.32 127.81-31.38 128.44-30.92 129.07-30.46 129.07-29.48L129.07-29.48 129.07-17.93 145.56-17.93ZM176.88 0L159.99 0Q159.3 0 158.84-0.46L158.84-0.46Q158.03-1.15 158.03-1.9L158.03-1.9 158.03-29.43Q158.03-30.52 159.18-31.15L159.18-31.15Q159.53-31.26 159.87-31.38L159.87-31.38 176.25-31.38Q177.11-31.38 177.52-30.86 177.92-30.34 177.92-29.74 177.92-29.14 177.46-28.62 177-28.1 176.25-28.1L176.25-28.1 161.83-28.1 161.83-17.7 175.56-17.7Q176.42-17.7 176.83-17.21 177.23-16.72 177.23-16.09L177.23-16.09Q177.23-15.52 176.77-15.06 176.31-14.6 175.56-14.6L175.56-14.6 161.83-14.6 161.83-3.22 176.88-3.22Q177.69-3.22 178.09-2.7 178.49-2.18 178.49-1.55 178.49-0.92 178.06-0.46 177.63 0 176.88 0L176.88 0ZM185.5-1.9L185.5-29.43Q185.5-30.57 186.77-31.21L186.77-31.21Q187.11-31.38 187.51-31.38L187.51-31.38 196.88-31.38Q204.47-31.38 207.11-27.36L207.11-27.36Q208.03-25.69 208.03-23.13 208.03-20.57 206.36-18.79 204.7-17.01 201.59-16.38L201.59-16.38 201.59-16.21Q204.58-15.69 205.85-13.97L205.85-13.97Q206.82-12.53 207.08-10.11 207.34-7.7 207.51-6.32L207.51-6.32Q207.69-4.31 207.86-1.9L207.86-1.9Q207.86-0.92 207.26-0.46 206.65 0 205.9 0 205.16 0 204.58-0.43 204.01-0.86 203.89-1.72L203.89-1.72Q203.66-4.37 203.49-6.41 203.32-8.45 203.09-9.86 202.86-11.26 202.46-12.18 202.05-13.1 201.36-13.62L201.36-13.62Q200.21-14.48 196.82-14.6L196.82-14.6 189.41-14.6 189.41-1.9Q189.41-0.52 188.2-0.11L188.2-0.11Q187.86 0 187.31 0 186.77 0 186.13-0.46 185.5-0.92 185.5-1.9L185.5-1.9ZM189.41-17.59L195.16-17.59Q200.62-17.59 202.51-19.31L202.51-19.31Q203.89-20.52 204.01-22.93L204.01-22.93Q204.01-26.32 201.48-27.41L201.48-27.41Q200.1-28.1 198.72-28.19 197.34-28.28 196.54-28.28L196.54-28.28 189.41-28.28 189.41-17.59ZM215.44-1.72L215.44-28.79Q215.44-29.89 216.19-30.57L216.19-30.57Q216.88-31.26 217.68-31.38L217.68-31.38Q219.29-31.38 220.21-30.11L220.21-30.11 236.88-5 236.88-29.54Q236.88-30.46 237.22-30.8L237.22-30.8Q237.86-31.38 238.46-31.38 239.06-31.38 239.41-31.26 239.75-31.15 239.98-30.92L239.98-30.92Q240.61-30.46 240.56-29.54L240.56-29.54 240.56-2.59Q240.56-0.86 238.89-0.17L238.89-0.17Q238.49 0 237.86 0L237.86 0Q236.48 0 235.44-1.26L235.44-1.26 219.18-26.03 219.18-1.72Q219.18-0.92 218.72-0.57L218.72-0.57Q218.03 0 217.28 0 216.53 0 215.99-0.43 215.44-0.86 215.44-1.72L215.44-1.72ZM263.08-23.45L263.08-23.45Q263.08-22.24 263.89-21.18 264.69-20.11 265.95-19.43 267.22-18.74 268.83-18.22 270.44-17.7 272.22-17.13 274-16.55 275.72-15.86 277.45-15.17 278.71-14.14L278.71-14.14Q281.47-11.9 281.47-8.05L281.47-8.05Q281.47-6.21 280.61-4.57 279.75-2.93 278.2-1.84L278.2-1.84Q275.03 0.46 269.75 0.46L269.75 0.46Q264.75 0.46 260.95-2.07L260.95-2.07Q258.6-3.56 258.6-4.6L258.6-4.6Q258.6-5.52 259.52-6.09L259.52-6.09Q259.75-6.32 260.09-6.32 260.44-6.32 260.84-6.03 261.24-5.75 261.79-5.34 262.33-4.94 263.17-4.45 264-3.97 264.92-3.56L264.92-3.56Q267.22-2.64 269.4-2.7 271.59-2.76 272.91-3.05 274.23-3.33 275.26-4.02L275.26-4.02Q277.45-5.52 277.51-7.82L277.51-7.82Q277.51-10.69 274.69-12.24L274.69-12.24Q273.43-12.93 271.85-13.48 270.26-14.02 268.51-14.54 266.76-15.06 265.03-15.8 263.31-16.55 261.99-17.59L261.99-17.59Q259.17-19.83 259.17-23.33L259.17-23.33Q259.17-25.17 260.06-26.78 260.95-28.39 262.51-29.43L262.51-29.43Q265.49-31.55 269.98-31.61L269.98-31.61Q276.47-31.61 280.44-27.41L280.44-27.41Q280.67-27.07 280.67-26.64 280.67-26.21 280.64-25.92 280.61-25.63 280.32-25.34L280.32-25.34Q279.92-24.83 279.26-24.83 278.6-24.83 277.85-25.69L277.85-25.69Q275.95-27.07 274.81-27.47L274.81-27.47Q272.51-28.39 270.32-28.39L270.32-28.39Q267.51-28.39 265.49-27.24L265.49-27.24Q263.08-25.86 263.08-23.45ZM297.85-13.68L292.04-13.68 292.04-1.9Q292.04-0.52 290.78-0.11L290.78-0.11Q290.43 0 289.92 0 289.4 0 288.8-0.46 288.19-0.92 288.19-1.9L288.19-1.9 288.19-29.43Q288.19-30.57 289.4-31.21L289.4-31.21Q289.75-31.38 290.2-31.38L290.2-31.38 298.02-31.38Q307.79-31.38 309.92-25.4L309.92-25.4Q310.43-24.02 310.43-22.47 310.43-20.92 309.98-19.6 309.52-18.28 308.65-17.24 307.79-16.21 306.58-15.57 305.38-14.94 304-14.48L304-14.48Q301.3-13.68 297.85-13.68L297.85-13.68ZM292.04-16.78L298.54-16.78Q302.27-16.78 304.06-18.05L304.06-18.05Q306.41-19.54 306.41-22.59L306.41-22.59Q306.41-25.52 304.06-27.01L304.06-27.01Q302.27-28.16 298.6-28.28L298.6-28.28 292.04-28.28 292.04-16.78ZM330.72-27.93L341.29-2.41Q341.35-2.07 341.35-1.72 341.35-1.38 341.18-1.03 341.01-0.69 340.72-0.52L340.72-0.52Q340.14 0 339.46 0L339.46 0Q338.08 0 337.62-1.21L337.62-1.21 334.8-8.16 319.28-8.16 316.52-1.21Q316.12 0 314.92 0 313.71 0 313.08-1.03L313.08-1.03Q312.9-1.38 312.9-1.67 312.9-1.95 313.08-2.41L313.08-2.41 323.48-27.93Q324.63-30.8 326.12-31.21L326.12-31.21Q326.52-31.26 327.16-31.38L327.16-31.38Q328.31-31.38 328.88-30.86L328.88-30.86Q329.8-30.17 330.72-27.93L330.72-27.93ZM327.04-28.1L320.37-11.21 333.77-11.21 327.04-28.1ZM346.75-1.9L346.75-29.43Q346.75-30.57 348.02-31.21L348.02-31.21Q348.36-31.38 348.76-31.38L348.76-31.38 358.13-31.38Q365.72-31.38 368.36-27.36L368.36-27.36Q369.28-25.69 369.28-23.13 369.28-20.57 367.61-18.79 365.95-17.01 362.84-16.38L362.84-16.38 362.84-16.21Q365.83-15.69 367.1-13.97L367.1-13.97Q368.07-12.53 368.33-10.11 368.59-7.7 368.76-6.32L368.76-6.32Q368.94-4.31 369.11-1.9L369.11-1.9Q369.11-0.92 368.5-0.46 367.9 0 367.15 0 366.41 0 365.83-0.43 365.26-0.86 365.14-1.72L365.14-1.72Q364.91-4.37 364.74-6.41 364.57-8.45 364.34-9.86 364.11-11.26 363.71-12.18 363.3-13.1 362.61-13.62L362.61-13.62Q361.46-14.48 358.07-14.6L358.07-14.6 350.66-14.6 350.66-1.9Q350.66-0.52 349.45-0.11L349.45-0.11Q349.11 0 348.56 0 348.02 0 347.38-0.46 346.75-0.92 346.75-1.9L346.75-1.9ZM350.66-17.59L356.41-17.59Q361.87-17.59 363.76-19.31L363.76-19.31Q365.14-20.52 365.26-22.93L365.26-22.93Q365.26-26.32 362.73-27.41L362.73-27.41Q361.35-28.1 359.97-28.19 358.59-28.28 357.79-28.28L357.79-28.28 350.66-28.28 350.66-17.59ZM381.12-16.09L381.12-1.84Q381.12-0.92 380.66-0.57L380.66-0.57Q379.97 0 379.11 0L379.11 0Q377.9 0 377.44-1.03L377.44-1.03Q377.32-1.38 377.32-1.84L377.32-1.84 377.32-29.48Q377.32-30.46 377.9-30.92 378.47-31.38 378.99-31.38 379.51-31.38 379.85-31.26 380.2-31.15 380.48-30.86L380.48-30.86Q381.12-30.34 381.12-29.48L381.12-29.48 381.12-17.47 394.34-30.69Q394.97-31.38 395.69-31.38 396.4-31.38 396.92-30.92 397.44-30.46 397.44-29.8 397.44-29.14 397.09-28.62L397.09-28.62 385.25-17.13 398.24-2.99Q399.39-1.55 398.13-0.52L398.13-0.52Q397.44 0 396.75 0L396.75 0Q395.83 0 395.31-0.8L395.31-0.8 381.12-16.09ZM423.41 0L407.32 0Q406 0 405.48-1.15L405.48-1.15Q405.31-1.49 405.31-1.9L405.31-1.9 405.31-29.48Q405.31-30.8 406.52-31.21L406.52-31.21Q406.86-31.26 407.44-31.32 408.01-31.38 408.59-30.92 409.16-30.46 409.16-29.48L409.16-29.48 409.16-3.22 423.41-3.22Q424.28-3.22 424.65-2.73 425.02-2.24 425.02-1.64 425.02-1.03 424.62-0.52 424.22 0 423.41 0L423.41 0ZM449.39 0L432.49 0Q431.8 0 431.34-0.46L431.34-0.46Q430.54-1.15 430.54-1.9L430.54-1.9 430.54-29.43Q430.54-30.52 431.69-31.15L431.69-31.15Q432.03-31.26 432.38-31.38L432.38-31.38 448.76-31.38Q449.62-31.38 450.02-30.86 450.42-30.34 450.42-29.74 450.42-29.14 449.96-28.62 449.5-28.1 448.76-28.1L448.76-28.1 434.33-28.1 434.33-17.7 448.07-17.7Q448.93-17.7 449.33-17.21 449.73-16.72 449.73-16.09L449.73-16.09Q449.73-15.52 449.27-15.06 448.81-14.6 448.07-14.6L448.07-14.6 434.33-14.6 434.33-3.22 449.39-3.22Q450.19-3.22 450.59-2.7 451-2.18 451-1.55 451-0.92 450.57-0.46 450.13 0 449.39 0L449.39 0Z" opacity="1" transform="matrix(1,0,0,1,0,0)" fill="#8abcd7" class="wordmark-text-0" data-fill-palette-color="quaternary" id="text-0"></path></svg></g></svg></g><g transform="matrix(1,0,0,1,0,19.85977055157266)"><svg viewBox="0 0 125.14532084446395 6.693489959438628" height="6.693489959438628" width="125.14532084446395"><g transform="matrix(1,0,0,1,0,0)"><svg width="125.14532084446395" viewBox="0.20000000298023224 -37.5 927.25 49.599998474121094" height="6.693489959438628" data-palette-color="#8abcd7"><path d="M15.15 0L10.1 0 0.2-35 5.2-35 12.6-6.15 21.15-34.3 26.15-34.3 34.7-6.15 42.1-35 47.1-35 37.2 0 32.15 0 23.65-28.15 15.15 0ZM54.85 0L50.3 0 50.3-37.5 54.85-37.5 54.85-20.25 53.25-20.35Q54.97-22.53 56.96-23.76 58.95-25 62.05-25L62.05-25Q65.22-25 67.35-23.58 69.47-22.15 70.54-19.6 71.6-17.05 71.6-13.65L71.6-13.65 71.6 0 67.1 0 67.1-13.1Q67.1-17.15 65.61-19.07 64.12-21 61.05-21L61.05-21Q58.72-21 56.94-19.75 55.15-18.5 54.1-16.4L54.1-16.4 54.85-19.15 54.85 0ZM89.2 0.5L89.2 0.5Q84.87 0.5 81.92-1.28 78.97-3.05 77.46-5.99 75.95-8.93 75.95-12.45L75.95-12.45Q75.95-15.88 77.36-18.73 78.77-21.58 81.46-23.29 84.15-25 87.95-25L87.95-25Q91-25 93.38-23.79 95.77-22.58 97.13-20.26 98.5-17.95 98.5-14.65L98.5-14.65Q98.5-14.13 98.46-13.51 98.42-12.9 98.3-12.25L98.3-12.25 80.55-12.25Q80.87-8.85 82.17-6.95 83.47-5.05 85.45-4.28 87.42-3.5 89.75-3.5L89.75-3.5Q91.45-3.5 93.3-3.85 95.15-4.2 96.8-4.95L96.8-4.95 97.4-1.4Q95.97-0.78 93.92-0.14 91.87 0.5 89.2 0.5ZM80.95-15.35L80.95-15.35 93.85-15.35Q93.85-17.07 93.2-18.35 92.55-19.63 91.22-20.31 89.9-21 87.85-21L87.85-21Q84.85-21 83.23-19.51 81.62-18.03 80.95-15.35ZM107.84 0L103.04 0 103.04-24.5 106.74-24.5 107.29-20.45Q109.17-22.78 110.88-23.89 112.59-25 114.54-25L114.54-25Q115.17-25 115.69-24.85L115.69-24.85 115.24-19.9Q114.92-19.98 114.56-20.01 114.19-20.05 113.74-20.05L113.74-20.05Q111.79-20.05 110.16-19.19 108.52-18.32 107.84-17.3L107.84-17.3 107.84 0ZM129.94 0.5L129.94 0.5Q125.62 0.5 122.67-1.28 119.72-3.05 118.2-5.99 116.69-8.93 116.69-12.45L116.69-12.45Q116.69-15.88 118.1-18.73 119.52-21.58 122.2-23.29 124.89-25 128.69-25L128.69-25Q131.74-25 134.13-23.79 136.51-22.58 137.88-20.26 139.24-17.95 139.24-14.65L139.24-14.65Q139.24-14.13 139.2-13.51 139.16-12.9 139.04-12.25L139.04-12.25 121.29-12.25Q121.61-8.85 122.92-6.95 124.22-5.05 126.19-4.28 128.16-3.5 130.49-3.5L130.49-3.5Q132.19-3.5 134.04-3.85 135.89-4.2 137.54-4.95L137.54-4.95 138.14-1.4Q136.72-0.78 134.66-0.14 132.62 0.5 129.94 0.5ZM121.69-15.35L121.69-15.35 134.59-15.35Q134.59-17.07 133.94-18.35 133.29-19.63 131.97-20.31 130.64-21 128.59-21L128.59-21Q125.59-21 123.98-19.51 122.36-18.03 121.69-15.35ZM169.19 0L155.99 0 155.99-35 167.04-35Q171.74-35 174.41-32.89 177.09-30.78 177.09-26.45L177.09-26.45Q177.09-23.53 175.81-21.3 174.54-19.07 171.99-18.4L171.99-18.4 172.69-19.2Q176.34-18.6 178.34-16.29 180.34-13.98 180.34-10L180.34-10Q180.34-5.4 177.37-2.7 174.41 0 169.19 0L169.19 0ZM160.74-16.15L160.74-4.3 168.79-4.3Q171.69-4.3 173.41-5.75 175.14-7.2 175.14-10.15L175.14-10.15Q175.14-13.45 173.37-14.8 171.61-16.15 168.79-16.15L168.79-16.15 160.74-16.15ZM160.74-30.75L160.74-20.45 166.44-20.45Q168.99-20.45 170.59-21.48 172.19-22.5 172.19-25.6L172.19-25.6Q172.19-28.68 170.59-29.71 168.99-30.75 166.44-30.75L166.44-30.75 160.74-30.75ZM196.63 0.5L196.63 0.5Q192.31 0.5 189.36-1.28 186.41-3.05 184.9-5.99 183.38-8.93 183.38-12.45L183.38-12.45Q183.38-15.88 184.8-18.73 186.21-21.58 188.9-23.29 191.58-25 195.38-25L195.38-25Q198.43-25 200.82-23.79 203.21-22.58 204.57-20.26 205.93-17.95 205.93-14.65L205.93-14.65Q205.93-14.13 205.9-13.51 205.86-12.9 205.73-12.25L205.73-12.25 187.98-12.25Q188.31-8.85 189.61-6.95 190.91-5.05 192.88-4.28 194.86-3.5 197.18-3.5L197.18-3.5Q198.88-3.5 200.73-3.85 202.58-4.2 204.23-4.95L204.23-4.95 204.83-1.4Q203.41-0.78 201.36-0.14 199.31 0.5 196.63 0.5ZM188.38-15.35L188.38-15.35 201.28-15.35Q201.28-17.07 200.63-18.35 199.98-19.63 198.66-20.31 197.33-21 195.28-21L195.28-21Q192.28-21 190.67-19.51 189.06-18.03 188.38-15.35ZM216.18 0.5L216.18 0.5Q213.91 0.5 212.21-0.43 210.5-1.35 209.57-2.95 208.63-4.55 208.63-6.6L208.63-6.6Q208.63-8.68 209.54-10.16 210.46-11.65 211.99-12.64 213.53-13.63 215.43-14.21 217.33-14.8 219.37-15.06 221.41-15.33 223.28-15.35L223.28-15.35Q223.28-18.85 221.91-19.93 220.53-21 217.93-21L217.93-21Q216.56-21 214.99-20.58 213.43-20.15 211.48-18.8L211.48-18.8 210.83-22.45Q212.31-23.58 214.5-24.29 216.71-25 219.13-25L219.13-25Q222.23-25 224.13-23.91 226.03-22.83 226.91-20.25 227.78-17.68 227.78-13.25L227.78-13.25 227.78-8.25Q227.78-6.5 227.94-5.36 228.11-4.23 228.69-3.66 229.28-3.1 230.58-3.1L230.58-3.1 231.03-3.1 230.33 0.5 229.98 0.5Q227.81 0.5 226.62 0.08 225.43-0.35 224.81-1.15 224.18-1.95 223.68-3.1L223.68-3.1Q222.31-1.5 220.43-0.5 218.56 0.5 216.18 0.5ZM217.03-3.1L217.03-3.1Q218.83-3.1 220.52-4 222.21-4.9 223.28-6.4L223.28-6.4 223.28-12.25Q219.71-12.13 217.49-11.55 215.28-10.98 214.25-9.83 213.23-8.68 213.23-6.85L213.23-6.85Q213.23-4.88 214.29-3.99 215.36-3.1 217.03-3.1ZM243.28 0.5L243.28 0.5Q240.4 0.5 238.38-0.66 236.35-1.83 235.29-4.2 234.23-6.58 234.23-10.25L234.23-10.25 234.23-24.5 238.73-24.5 238.73-11.5Q238.73-7.6 240.06-5.55 241.4-3.5 244.43-3.5L244.43-3.5Q246.5-3.5 248.28-4.5 250.05-5.5 250.73-7.7L250.73-7.7 250.08-5.25 250.08-24.5 254.58-24.5 254.58 0 250.58 0 249.68-4.8 250.88-4Q249.65-1.73 247.89-0.61 246.13 0.5 243.28 0.5ZM273.18 0.5L269.13 0.5Q266.8 0.5 265.4-0.35 264-1.2 263.36-2.54 262.73-3.88 262.73-5.35L262.73-5.35 262.73-21 258.52-21 258.93-24.5 262.73-24.5 262.73-30.55 267.23-31 267.23-24.5 273.68-24.5 273.68-21 267.23-21 267.23-8.1Q267.23-5.75 267.5-4.7 267.77-3.65 268.86-3.38 269.95-3.1 272.38-3.1L272.38-3.1 273.52-3.1 273.18 0.5ZM284.37 12.1L279.37 12.1 285.02-1.1 274.82-24.5 279.82-24.5 287.47-6.3 294.37-24.5 299.37-24.5 284.37 12.1ZM328.17 0L314.97 0 314.97-35 326.02-35Q330.72-35 333.39-32.89 336.07-30.78 336.07-26.45L336.07-26.45Q336.07-23.53 334.79-21.3 333.52-19.07 330.97-18.4L330.97-18.4 331.67-19.2Q335.32-18.6 337.32-16.29 339.32-13.98 339.32-10L339.32-10Q339.32-5.4 336.36-2.7 333.39 0 328.17 0L328.17 0ZM319.72-16.15L319.72-4.3 327.77-4.3Q330.67-4.3 332.39-5.75 334.12-7.2 334.12-10.15L334.12-10.15Q334.12-13.45 332.36-14.8 330.59-16.15 327.77-16.15L327.77-16.15 319.72-16.15ZM319.72-30.75L319.72-20.45 325.42-20.45Q327.97-20.45 329.57-21.48 331.17-22.5 331.17-25.6L331.17-25.6Q331.17-28.68 329.57-29.71 327.97-30.75 325.42-30.75L325.42-30.75 319.72-30.75ZM351.32 0.5L349.87 0.5Q347.49 0.5 346.1-0.36 344.72-1.23 344.12-2.58 343.52-3.93 343.52-5.4L343.52-5.4 343.52-37.5 348.02-37.5 348.02-8Q348.02-5.9 348.29-4.85 348.57-3.8 349.4-3.45 350.24-3.1 351.97-3.1L351.97-3.1 351.32 0.5ZM365.81 0.5L365.81 0.5Q361.96 0.5 359.25-1.21 356.54-2.93 355.1-5.81 353.66-8.7 353.66-12.25L353.66-12.25Q353.66-15.8 355.1-18.69 356.54-21.58 359.25-23.29 361.96-25 365.81-25L365.81-25Q369.64-25 372.36-23.29 375.09-21.58 376.53-18.69 377.96-15.8 377.96-12.25L377.96-12.25Q377.96-8.7 376.53-5.81 375.09-2.93 372.36-1.21 369.64 0.5 365.81 0.5ZM365.81-3.5L365.81-3.5Q369.46-3.5 371.41-5.81 373.36-8.13 373.36-12.25L373.36-12.25Q373.36-16.38 371.41-18.69 369.46-21 365.81-21L365.81-21Q362.19-21 360.23-18.69 358.26-16.38 358.26-12.25L358.26-12.25Q358.26-8.13 360.23-5.81 362.19-3.5 365.81-3.5ZM389.56 0.5L389.56 0.5Q386.31 0.5 384.17-0.28 382.04-1.05 381.16-1.65L381.16-1.65 381.71-6Q382.51-5.3 384.54-4.4 386.56-3.5 389.36-3.5L389.36-3.5Q391.74-3.5 393-4.3 394.26-5.1 394.26-6.55L394.26-6.55Q394.26-7.83 393.45-8.61 392.64-9.4 391.5-9.86 390.36-10.33 389.36-10.6L389.36-10.6Q387.69-11.05 385.9-11.74 384.11-12.43 382.89-13.8 381.66-15.18 381.66-17.65L381.66-17.65Q381.66-19.53 382.56-21.21 383.46-22.9 385.49-23.95 387.51-25 390.86-25L390.86-25Q393.31-25 394.85-24.49 396.39-23.98 397.51-23.4L397.51-23.4 396.96-19.3Q395.89-20.2 394.46-20.83 393.04-21.45 390.96-21.45L390.96-21.45Q388.86-21.45 387.54-20.66 386.21-19.88 386.21-18.15L386.21-18.15Q386.21-16.43 387.62-15.7 389.04-14.98 391.91-14.1L391.91-14.1Q392.81-13.85 394-13.38 395.19-12.9 396.31-12.1 397.44-11.3 398.17-10.01 398.91-8.72 398.91-6.8L398.91-6.8Q398.91-5.18 398.14-3.49 397.36-1.8 395.34-0.65 393.31 0.5 389.56 0.5ZM410.26 0.5L410.26 0.5Q407.01 0.5 404.87-0.28 402.73-1.05 401.86-1.65L401.86-1.65 402.41-6Q403.21-5.3 405.23-4.4 407.26-3.5 410.06-3.5L410.06-3.5Q412.43-3.5 413.7-4.3 414.96-5.1 414.96-6.55L414.96-6.55Q414.96-7.83 414.15-8.61 413.33-9.4 412.2-9.86 411.06-10.33 410.06-10.6L410.06-10.6Q408.38-11.05 406.6-11.74 404.81-12.43 403.58-13.8 402.36-15.18 402.36-17.65L402.36-17.65Q402.36-19.53 403.26-21.21 404.16-22.9 406.18-23.95 408.21-25 411.56-25L411.56-25Q414.01-25 415.55-24.49 417.08-23.98 418.21-23.4L418.21-23.4 417.66-19.3Q416.58-20.2 415.16-20.83 413.73-21.45 411.66-21.45L411.66-21.45Q409.56-21.45 408.23-20.66 406.91-19.88 406.91-18.15L406.91-18.15Q406.91-16.43 408.32-15.7 409.73-14.98 412.61-14.1L412.61-14.1Q413.51-13.85 414.7-13.38 415.88-12.9 417.01-12.1 418.13-11.3 418.87-10.01 419.61-8.72 419.61-6.8L419.61-6.8Q419.61-5.18 418.83-3.49 418.06-1.8 416.03-0.65 414.01 0.5 410.26 0.5ZM434.71 0.5L434.71 0.5Q430.86 0.5 428.14-1.21 425.43-2.93 423.99-5.81 422.56-8.7 422.56-12.25L422.56-12.25Q422.56-15.8 423.99-18.69 425.43-21.58 428.14-23.29 430.86-25 434.71-25L434.71-25Q438.53-25 441.26-23.29 443.98-21.58 445.42-18.69 446.86-15.8 446.86-12.25L446.86-12.25Q446.86-8.7 445.42-5.81 443.98-2.93 441.26-1.21 438.53 0.5 434.71 0.5ZM434.71-3.5L434.71-3.5Q438.36-3.5 440.31-5.81 442.26-8.13 442.26-12.25L442.26-12.25Q442.26-16.38 440.31-18.69 438.36-21 434.71-21L434.71-21Q431.08-21 429.12-18.69 427.16-16.38 427.16-12.25L427.16-12.25Q427.16-8.13 429.12-5.81 431.08-3.5 434.71-3.5ZM456 0L451.5 0 451.5-24.5 455-24.5 455.9-19.8 454.2-20.6Q456.5-23.08 458.68-24.04 460.85-25 463.25-25L463.25-25Q465.05-25 466.72-24.41 468.38-23.83 469.72-22.36 471.05-20.9 471.85-18.3L471.85-18.3 470.6-18.85Q471.7-21.7 473.98-23.35 476.25-25 480.1-25L480.1-25Q483.18-25 485.28-23.86 487.38-22.73 488.44-20.39 489.5-18.05 489.5-14.45L489.5-14.45 489.5 0 485 0 485-14.4Q485-17.85 483.65-19.43 482.3-21 479.25-21L479.25-21Q477.1-21 475.8-20.34 474.5-19.68 473.84-18.63 473.18-17.57 472.97-16.4 472.75-15.23 472.75-14.2L472.75-14.2 472.75 0 468.25 0 468.25-13.5Q468.25-16.5 467.53-18.13 466.8-19.75 465.5-20.38 464.2-21 462.5-21L462.5-21Q460.03-21 458.08-19.91 456.13-18.82 455.45-16.45L455.45-16.45 456-18.9 456 0ZM502.3 0.5L502.3 0.5Q499.05 0.5 496.91-0.28 494.78-1.05 493.9-1.65L493.9-1.65 494.45-6Q495.25-5.3 497.28-4.4 499.3-3.5 502.1-3.5L502.1-3.5Q504.48-3.5 505.74-4.3 507-5.1 507-6.55L507-6.55Q507-7.83 506.19-8.61 505.38-9.4 504.24-9.86 503.1-10.33 502.1-10.6L502.1-10.6Q500.43-11.05 498.64-11.74 496.85-12.43 495.63-13.8 494.4-15.18 494.4-17.65L494.4-17.65Q494.4-19.53 495.3-21.21 496.2-22.9 498.23-23.95 500.25-25 503.6-25L503.6-25Q506.05-25 507.59-24.49 509.13-23.98 510.25-23.4L510.25-23.4 509.7-19.3Q508.63-20.2 507.2-20.83 505.78-21.45 503.7-21.45L503.7-21.45Q501.6-21.45 500.28-20.66 498.95-19.88 498.95-18.15L498.95-18.15Q498.95-16.43 500.36-15.7 501.78-14.98 504.65-14.1L504.65-14.1Q505.55-13.85 506.74-13.38 507.93-12.9 509.05-12.1 510.18-11.3 510.91-10.01 511.65-8.72 511.65-6.8L511.65-6.8Q511.65-5.18 510.88-3.49 510.1-1.8 508.08-0.65 506.05 0.5 502.3 0.5ZM521.3-0.5L518.7 5.35 515.85 5.35 517.65 0 515.9 0 515.9-5.3 521.3-5.3 521.3-0.5ZM554.64 0.7L554.64 0.7Q549.54 0.7 545.55-1.54 541.57-3.78 539.28-7.86 536.99-11.95 536.99-17.5L536.99-17.5Q536.99-23.05 539.3-27.14 541.62-31.23 545.65-33.46 549.69-35.7 554.84-35.7L554.84-35.7Q557.52-35.7 559.94-35.13 562.37-34.55 564.19-33.65L564.19-33.65 563.69-29.25Q561.82-30.15 559.57-30.78 557.32-31.4 554.79-31.4L554.79-31.4Q550.67-31.4 547.87-29.54 545.07-27.68 543.63-24.53 542.19-21.38 542.19-17.5L542.19-17.5Q542.19-13.63 543.6-10.48 545.02-7.33 547.8-5.46 550.59-3.6 554.69-3.6L554.69-3.6Q557.29-3.6 559.5-4.16 561.72-4.73 563.69-5.7L563.69-5.7 564.19-1.3Q562.32-0.45 559.97 0.13 557.62 0.7 554.64 0.7ZM578.89 0.5L578.89 0.5Q575.04 0.5 572.33-1.21 569.61-2.93 568.18-5.81 566.74-8.7 566.74-12.25L566.74-12.25Q566.74-15.8 568.18-18.69 569.61-21.58 572.33-23.29 575.04-25 578.89-25L578.89-25Q582.71-25 585.44-23.29 588.16-21.58 589.6-18.69 591.04-15.8 591.04-12.25L591.04-12.25Q591.04-8.7 589.6-5.81 588.16-2.93 585.44-1.21 582.71 0.5 578.89 0.5ZM578.89-3.5L578.89-3.5Q582.54-3.5 584.49-5.81 586.44-8.13 586.44-12.25L586.44-12.25Q586.44-16.38 584.49-18.69 582.54-21 578.89-21L578.89-21Q575.26-21 573.3-18.69 571.34-16.38 571.34-12.25L571.34-12.25Q571.34-8.13 573.3-5.81 575.26-3.5 578.89-3.5ZM600.19 0L595.69 0 595.69-24.5 599.19-24.5 600.09-19.8 598.34-20.55Q600.81-23.3 603.17-24.15 605.54-25 607.79-25L607.79-25Q613.16-25 615.47-21.9 617.79-18.8 617.79-13.5L617.79-13.5 617.79 0 613.29 0 613.29-13.5Q613.29-17.4 611.84-19.2 610.39-21 606.89-21L606.89-21Q604.41-21 602.35-19.91 600.29-18.82 599.64-16.45L599.64-16.45 600.19-19.2 600.19 0ZM629.58 0L625.08 0 625.08-21 620.83-21 621.43-24.5 625.08-24.5 625.08-30.3Q625.08-33.58 626.83-35.54 628.58-37.5 631.98-37.5L631.98-37.5Q633.23-37.5 634.17-37.33 635.11-37.15 635.88-36.85L635.88-36.85 635.18-33.05Q634.58-33.27 634.01-33.39 633.43-33.5 632.68-33.5L632.68-33.5Q631.23-33.5 630.41-32.69 629.58-31.88 629.58-30L629.58-30 629.58-24.5 636.18-24.5 636.18-21 629.58-21 629.58 0ZM644.43 0L639.93 0 639.93-24.5 644.43-24.5 644.43 0ZM644.43-30L639.93-30 639.93-35 644.43-35 644.43-30ZM660.23 0.5L660.23 0.5Q657.1 0.5 654.58-1.2 652.05-2.9 650.57-5.78 649.08-8.65 649.08-12.2L649.08-12.2Q649.08-15.58 650.44-18.5 651.8-21.43 654.3-23.21 656.8-25 660.23-25L660.23-25Q662.68-25 664.97-23.94 667.25-22.88 668.68-20.4L668.68-20.4 667.73-19.75 667.73-37.5 672.23-37.5 672.23 0 668.23 0 667.38-5.2 668.53-4.4Q667.45-1.98 665.15-0.74 662.85 0.5 660.23 0.5ZM661.03-3.5L661.03-3.5Q662.73-3.5 664.39-4.38 666.05-5.25 667.14-7.16 668.23-9.08 668.23-12.2L668.23-12.2Q668.23-15.1 667.14-17.06 666.05-19.03 664.39-20.01 662.73-21 661.03-21L661.03-21Q658.73-21 657.08-19.85 655.43-18.7 654.55-16.71 653.68-14.73 653.68-12.2L653.68-12.2Q653.68-9.83 654.55-7.85 655.43-5.88 657.08-4.69 658.73-3.5 661.03-3.5ZM690.03 0.5L690.03 0.5Q685.7 0.5 682.75-1.28 679.8-3.05 678.29-5.99 676.78-8.93 676.78-12.45L676.78-12.45Q676.78-15.88 678.19-18.73 679.6-21.58 682.29-23.29 684.98-25 688.78-25L688.78-25Q691.83-25 694.21-23.79 696.6-22.58 697.96-20.26 699.33-17.95 699.33-14.65L699.33-14.65Q699.33-14.13 699.29-13.51 699.25-12.9 699.13-12.25L699.13-12.25 681.38-12.25Q681.7-8.85 683-6.95 684.3-5.05 686.28-4.28 688.25-3.5 690.58-3.5L690.58-3.5Q692.28-3.5 694.13-3.85 695.98-4.2 697.63-4.95L697.63-4.95 698.23-1.4Q696.8-0.78 694.75-0.14 692.7 0.5 690.03 0.5ZM681.78-15.35L681.78-15.35 694.68-15.35Q694.68-17.07 694.03-18.35 693.38-19.63 692.05-20.31 690.73-21 688.68-21L688.68-21Q685.68-21 684.06-19.51 682.45-18.03 681.78-15.35ZM708.37 0L703.87 0 703.87-24.5 707.37-24.5 708.27-19.8 706.52-20.55Q709-23.3 711.36-24.15 713.72-25 715.97-25L715.97-25Q721.35-25 723.66-21.9 725.97-18.8 725.97-13.5L725.97-13.5 725.97 0 721.47 0 721.47-13.5Q721.47-17.4 720.02-19.2 718.57-21 715.07-21L715.07-21Q712.6-21 710.54-19.91 708.47-18.82 707.82-16.45L707.82-16.45 708.37-19.2 708.37 0ZM743.07 0.5L743.07 0.5Q738.92 0.5 736.11-1.19 733.3-2.88 731.86-5.74 730.42-8.6 730.42-12.1L730.42-12.1Q730.42-15.75 731.81-18.68 733.2-21.6 736.07-23.3 738.95-25 743.42-25L743.42-25Q745.35-25 747.06-24.61 748.77-24.23 750.12-23.55L750.12-23.55 749.42-19.6Q748.05-20.25 746.51-20.63 744.97-21 743.32-21L743.32-21Q739.27-21 737.15-18.7 735.02-16.4 735.02-12.3L735.02-12.3Q735.02-8.3 737.05-5.88 739.07-3.45 743.22-3.45L743.22-3.45Q744.92-3.45 746.48-3.85 748.05-4.25 749.47-4.95L749.47-4.95 750.07-1.35Q749.07-0.65 747.15-0.08 745.22 0.5 743.07 0.5ZM765.92 0.5L765.92 0.5Q761.59 0.5 758.64-1.28 755.69-3.05 754.18-5.99 752.67-8.93 752.67-12.45L752.67-12.45Q752.67-15.88 754.08-18.73 755.49-21.58 758.18-23.29 760.87-25 764.67-25L764.67-25Q767.72-25 770.11-23.79 772.49-22.58 773.86-20.26 775.22-17.95 775.22-14.65L775.22-14.65Q775.22-14.13 775.18-13.51 775.14-12.9 775.02-12.25L775.02-12.25 757.27-12.25Q757.59-8.85 758.89-6.95 760.19-5.05 762.17-4.28 764.14-3.5 766.47-3.5L766.47-3.5Q768.17-3.5 770.02-3.85 771.87-4.2 773.52-4.95L773.52-4.95 774.12-1.4Q772.69-0.78 770.64-0.14 768.59 0.5 765.92 0.5ZM757.67-15.35L757.67-15.35 770.57-15.35Q770.57-17.07 769.92-18.35 769.27-19.63 767.94-20.31 766.62-21 764.57-21L764.57-21Q761.57-21 759.96-19.51 758.34-18.03 757.67-15.35ZM801.96 0.7L801.96 0.7Q799.79 0.7 797.61 0.38 795.44 0.05 793.59-0.46 791.74-0.98 790.51-1.55L790.51-1.55 791.16-6.6Q792.51-5.95 794.43-5.25 796.34-4.55 798.56-4.08 800.79-3.6 803.06-3.6L803.06-3.6Q806.44-3.6 808.43-4.84 810.41-6.08 810.41-8.7L810.41-8.7Q810.41-10.68 809.41-11.94 808.41-13.2 806.4-14.1 804.39-15 801.36-15.9L801.36-15.9Q798.49-16.75 796.06-17.91 793.64-19.07 792.18-21.04 790.71-23 790.71-26.25L790.71-26.25Q790.71-29.03 792.15-31.16 793.59-33.3 796.38-34.5 799.16-35.7 803.21-35.7L803.21-35.7Q806.66-35.7 809.55-34.95 812.44-34.2 814.31-33.3L814.31-33.3 813.81-28.25Q810.96-29.95 808.38-30.68 805.79-31.4 803.01-31.4L803.01-31.4Q799.94-31.4 797.93-30.25 795.91-29.1 795.91-26.5L795.91-26.5Q795.91-24.75 796.81-23.64 797.71-22.53 799.49-21.74 801.26-20.95 803.91-20.15L803.91-20.15Q807.56-19.05 810.19-17.64 812.81-16.23 814.21-14.16 815.61-12.1 815.61-9.05L815.61-9.05Q815.61-6.8 814.76-5 813.91-3.2 812.21-1.93 810.51-0.65 807.95 0.03 805.39 0.7 801.96 0.7ZM824.41 0L819.86 0 819.86-37.5 824.41-37.5 824.41-20.25 822.81-20.35Q824.54-22.53 826.52-23.76 828.51-25 831.61-25L831.61-25Q834.79-25 836.91-23.58 839.04-22.15 840.1-19.6 841.16-17.05 841.16-13.65L841.16-13.65 841.16 0 836.66 0 836.66-13.1Q836.66-17.15 835.17-19.07 833.69-21 830.61-21L830.61-21Q828.29-21 826.5-19.75 824.71-18.5 823.66-16.4L823.66-16.4 824.41-19.15 824.41 0ZM851.51 0L847.01 0 847.01-24.5 851.51-24.5 851.51 0ZM851.51-30L847.01-30 847.01-35 851.51-35 851.51-30ZM862.11 0L857.61 0 857.61-24.5 861.11-24.5 862.01-19.8 860.26-20.55Q862.73-23.3 865.09-24.15 867.46-25 869.71-25L869.71-25Q875.08-25 877.39-21.9 879.71-18.8 879.71-13.5L879.71-13.5 879.71 0 875.21 0 875.21-13.5Q875.21-17.4 873.76-19.2 872.31-21 868.81-21L868.81-21Q866.33-21 864.27-19.91 862.21-18.82 861.56-16.45L861.56-16.45 862.11-19.2 862.11 0ZM897.3 0.5L897.3 0.5Q892.98 0.5 890.03-1.28 887.08-3.05 885.57-5.99 884.05-8.93 884.05-12.45L884.05-12.45Q884.05-15.88 885.47-18.73 886.88-21.58 889.57-23.29 892.25-25 896.05-25L896.05-25Q899.1-25 901.49-23.79 903.88-22.58 905.24-20.26 906.6-17.95 906.6-14.65L906.6-14.65Q906.6-14.13 906.57-13.51 906.53-12.9 906.4-12.25L906.4-12.25 888.65-12.25Q888.98-8.85 890.28-6.95 891.58-5.05 893.55-4.28 895.53-3.5 897.85-3.5L897.85-3.5Q899.55-3.5 901.4-3.85 903.25-4.2 904.9-4.95L904.9-4.95 905.5-1.4Q904.08-0.78 902.03-0.14 899.98 0.5 897.3 0.5ZM889.05-15.35L889.05-15.35 901.95-15.35Q901.95-17.07 901.3-18.35 900.65-19.63 899.33-20.31 898-21 895.95-21L895.95-21Q892.95-21 891.34-19.51 889.73-18.03 889.05-15.35ZM918.1 0.5L918.1 0.5Q914.85 0.5 912.71-0.28 910.58-1.05 909.7-1.65L909.7-1.65 910.25-6Q911.05-5.3 913.08-4.4 915.1-3.5 917.9-3.5L917.9-3.5Q920.28-3.5 921.54-4.3 922.8-5.1 922.8-6.55L922.8-6.55Q922.8-7.83 921.99-8.61 921.18-9.4 920.04-9.86 918.9-10.33 917.9-10.6L917.9-10.6Q916.23-11.05 914.44-11.74 912.65-12.43 911.43-13.8 910.2-15.18 910.2-17.65L910.2-17.65Q910.2-19.53 911.1-21.21 912-22.9 914.03-23.95 916.05-25 919.4-25L919.4-25Q921.85-25 923.39-24.49 924.93-23.98 926.05-23.4L926.05-23.4 925.5-19.3Q924.43-20.2 923-20.83 921.58-21.45 919.5-21.45L919.5-21.45Q917.4-21.45 916.08-20.66 914.75-19.88 914.75-18.15L914.75-18.15Q914.75-16.43 916.16-15.7 917.58-14.98 920.45-14.1L920.45-14.1Q921.35-13.85 922.54-13.38 923.73-12.9 924.85-12.1 925.98-11.3 926.71-10.01 927.45-8.72 927.45-6.8L927.45-6.8Q927.45-5.18 926.68-3.49 925.9-1.8 923.88-0.65 921.85 0.5 918.1 0.5Z" opacity="1" transform="matrix(1,0,0,1,0,0)" fill="#8abcd7" class="slogan-text-1" data-fill-palette-color="quaternary" id="text-1"></path></svg></g></svg></g></svg></g></svg></g><g><svg viewBox="0 0 69.51668071560402 69.51643601782754" height="69.51643601782754" width="69.51668071560402"><g><svg xmlns="http://www.w3.org/2000/svg" xmlns:xlink="http://www.w3.org/1999/xlink" version="1.1" x="0" y="0" viewBox="7.734947204589844 7.735245704650879 84.53054809570312 84.5302505493164" enable-background="new 0 0 100 100" xml:space="preserve" height="69.51643601782754" width="69.51668071560402" class="icon-icon-0" data-fill-palette-color="quaternary" id="icon-0"><g fill="#8abcd7" data-fill-palette-color="quaternary"><g fill="#8abcd7" data-fill-palette-color="quaternary"><g fill="#8abcd7" data-fill-palette-color="quaternary"><path d="M28.368 14.767C42.162 16.327 48.04 25.762 49.69 30.695c1.07 3.198 1.472 5.094 1.472 9.275 0 0.817 0.044 2.076-1.054 2.216-0.77 0.099-1.209-0.509-1.273-1.182-0.289-3.026-1.159-6.569-4.008-9.85-2.253-2.594-7.472-7.802-16.652-7.021-2.669 0.228-5.052-1.868-5.129-4.564C22.964 16.703 25.531 14.446 28.368 14.767z" fill="#8abcd7" data-fill-palette-color="quaternary"></path><path d="M71.633 85.232c-13.794-1.561-19.671-10.995-21.322-15.929-1.07-3.198-1.472-5.094-1.472-9.275 0-0.817-0.044-2.076 1.054-2.216 0.77-0.099 1.209 0.509 1.273 1.182 0.289 3.026 1.159 6.569 4.008 9.85 2.253 2.594 7.472 7.802 16.652 7.021 2.669-0.228 5.052 1.868 5.129 4.564C77.037 83.296 74.47 85.553 71.633 85.232z" fill="#8abcd7" data-fill-palette-color="quaternary"></path></g><g fill="#8abcd7" data-fill-palette-color="quaternary"><path d="M14.768 71.633c1.56-13.794 10.995-19.672 15.928-21.322 3.198-1.07 5.094-1.472 9.276-1.472 0.817 0 2.076-0.045 2.216 1.054 0.098 0.77-0.509 1.209-1.182 1.273-3.026 0.288-6.569 1.159-9.849 4.008-2.594 2.254-7.802 7.473-7.021 16.652 0.228 2.669-1.868 5.052-4.564 5.129C16.704 77.036 14.447 74.47 14.768 71.633z" fill="#8abcd7" data-fill-palette-color="quaternary"></path><path d="M85.233 28.367c-1.56 13.794-10.995 19.672-15.928 21.322-3.198 1.07-5.094 1.472-9.276 1.472-0.817 0-2.076 0.045-2.216-1.054-0.098-0.77 0.509-1.209 1.182-1.273 3.026-0.288 6.569-1.159 9.849-4.008 2.594-2.254 7.802-7.473 7.021-16.652-0.228-2.669 1.868-5.052 4.564-5.129C83.297 22.964 85.554 25.53 85.233 28.367z" fill="#8abcd7" data-fill-palette-color="quaternary"></path></g></g><g fill="#8abcd7" data-fill-palette-color="quaternary"><g fill="#8abcd7" data-fill-palette-color="quaternary"><path d="M13.65 30.304c12.726-5.546 22.533-0.314 26.43 3.133 2.526 2.234 3.821 3.676 5.912 7.297 0.409 0.708 1.077 1.775 0.195 2.446-0.617 0.47-1.302 0.164-1.693-0.387-1.763-2.477-4.289-5.109-8.396-6.525-3.249-1.12-10.373-3.021-17.931 2.246-2.198 1.531-5.309 0.907-6.724-1.389C9.938 34.682 11.033 31.444 13.65 30.304z" fill="#8abcd7" data-fill-palette-color="quaternary"></path><path d="M86.351 69.695c-12.726 5.546-22.533 0.314-26.43-3.133-2.526-2.234-3.821-3.676-5.912-7.297-0.409-0.708-1.077-1.775-0.196-2.446 0.618-0.47 1.302-0.164 1.694 0.387 1.763 2.477 4.289 5.109 8.396 6.525 3.249 1.12 10.373 3.021 17.931-2.245 2.198-1.532 5.309-0.908 6.724 1.388C90.063 65.317 88.968 68.555 86.351 69.695z" fill="#8abcd7" data-fill-palette-color="quaternary"></path></g><g fill="#8abcd7" data-fill-palette-color="quaternary"><path d="M30.304 86.351c-5.546-12.726-0.314-22.533 3.133-26.43 2.235-2.525 3.676-3.821 7.298-5.912 0.708-0.409 1.775-1.076 2.445-0.195 0.47 0.617 0.164 1.302-0.387 1.693-2.477 1.764-5.109 4.289-6.525 8.396-1.12 3.248-3.021 10.372 2.246 17.931 1.531 2.198 0.908 5.31-1.389 6.725C34.683 90.062 31.445 88.968 30.304 86.351z" fill="#8abcd7" data-fill-palette-color="quaternary"></path><path d="M69.696 13.649c5.546 12.726 0.314 22.533-3.133 26.43-2.234 2.526-3.675 3.821-7.297 5.913-0.708 0.408-1.775 1.076-2.446 0.195-0.47-0.618-0.163-1.303 0.388-1.694 2.477-1.763 5.109-4.288 6.525-8.396 1.12-3.249 3.021-10.372-2.246-17.932-1.532-2.198-0.908-5.309 1.388-6.724C65.318 9.938 68.556 11.032 69.696 13.649z" fill="#8abcd7" data-fill-palette-color="quaternary"></path></g></g><g fill="#8abcd7" data-fill-palette-color="quaternary"><g fill="#8abcd7" data-fill-palette-color="quaternary"><path d="M8.671 51.118c8.248-11.166 19.357-11.539 24.456-10.502 3.305 0.672 5.147 1.272 8.769 3.363 0.708 0.408 1.82 0.999 1.392 2.021-0.299 0.716-1.045 0.793-1.66 0.512-2.765-1.263-6.269-2.28-10.533-1.453-3.374 0.654-10.494 2.57-14.406 10.911-1.138 2.425-4.144 3.44-6.518 2.159C7.646 56.766 6.976 53.414 8.671 51.118z" fill="#8abcd7" data-fill-palette-color="quaternary"></path><path d="M91.329 48.882C83.081 60.047 71.971 60.42 66.874 59.383c-3.305-0.672-5.147-1.272-8.769-3.363-0.708-0.408-1.82-0.999-1.393-2.021 0.3-0.716 1.046-0.793 1.66-0.512 2.766 1.264 6.269 2.28 10.534 1.453 3.373-0.654 10.493-2.569 14.406-10.91 1.138-2.426 4.144-3.441 6.517-2.16C92.354 43.233 93.025 46.585 91.329 48.882z" fill="#8abcd7" data-fill-palette-color="quaternary"></path></g><g fill="#8abcd7" data-fill-palette-color="quaternary"><path d="M51.119 91.329C39.953 83.081 39.58 71.972 40.617 66.874c0.673-3.305 1.272-5.147 3.364-8.77 0.409-0.708 1-1.819 2.02-1.392 0.716 0.3 0.793 1.045 0.512 1.66-1.263 2.765-2.28 6.269-1.453 10.533 0.654 3.374 2.57 10.493 10.911 14.406 2.425 1.138 3.44 4.144 2.159 6.518C56.766 92.354 53.415 93.025 51.119 91.329z" fill="#8abcd7" data-fill-palette-color="quaternary"></path><path d="M48.882 8.672c11.166 8.247 11.538 19.356 10.501 24.455-0.672 3.305-1.271 5.147-3.362 8.77-0.409 0.707-1 1.819-2.021 1.392-0.716-0.3-0.792-1.046-0.511-1.661 1.263-2.765 2.28-6.268 1.453-10.533-0.655-3.373-2.57-10.492-10.911-14.406-2.426-1.137-3.44-4.144-2.159-6.517C43.234 7.646 46.585 6.976 48.882 8.672z" fill="#8abcd7" data-fill-palette-color="quaternary"></path></g></g></g></svg></g></svg></g></svg></g></svg></g></svg></g><defs></defs></svg><rect width="342.85155851775386" height="342.85155851775386" fill="none" stroke="none" visibility="hidden"></rect></g></svg></g></svg>